<?xml version="1.0" standalone="no"?>
<!DOCTYPE svg PUBLIC "-//W3C//DTD SVG 20010904//EN"
 "http://www.w3.org/TR/2001/REC-SVG-20010904/DTD/svg10.dtd">
<svg version="1.0" xmlns="http://www.w3.org/2000/svg"
 width="500.000000pt" height="500.000000pt" viewBox="0 0 500.000000 500.000000"
 preserveAspectRatio="xMidYMid meet">

<g transform="translate(0.000000,500.000000) scale(0.100000,-0.100000)"
fill="#000000" stroke="none">
<path d="M1545 3831 c-57 -14 -74 -30 -90 -84 -14 -46 -99 -391 -185 -747 -40
-167 -116 -325 -189 -393 -44 -41 -55 -47 -94 -47 -156 0 -162 222 -22 709 51
176 113 362 164 489 12 29 21 55 21 57 0 9 -75 5 -112 -6 -72 -19 -83 -38
-142 -244 -106 -372 -160 -649 -161 -830 0 -117 2 -135 24 -178 15 -30 38 -58
64 -75 35 -24 50 -27 116 -26 59 0 86 5 119 23 54 27 124 92 153 138 12 19 23
32 26 30 2 -3 8 -33 13 -67 12 -87 30 -110 83 -110 61 0 74 11 58 47 -33 71
-23 281 25 521 24 122 159 586 209 717 14 38 24 69 23 70 -10 8 -78 12 -103 6z"/>
<path d="M3934 3789 c-17 -5 -36 -15 -41 -21 -11 -13 -99 -332 -131 -473 l-18
-80 -21 40 c-32 62 -58 80 -112 79 -81 -1 -172 -62 -232 -155 -36 -57 -79
-167 -79 -204 0 -29 -106 -121 -184 -160 -64 -32 -133 -33 -170 -4 -28 22 -56
68 -56 93 0 8 44 45 98 82 154 108 209 175 220 270 4 36 0 47 -21 68 -22 22
-35 26 -79 26 -31 0 -71 -9 -96 -20 -97 -44 -216 -206 -243 -329 -9 -44 -19
-58 -65 -99 -127 -110 -237 -142 -303 -87 -16 14 -33 36 -36 48 -4 12 -9 29
-11 38 -3 12 23 35 88 80 159 108 227 193 228 282 0 83 -96 115 -199 65 -104
-50 -221 -214 -240 -337 -8 -50 -14 -60 -78 -122 -70 -68 -115 -91 -136 -70
-13 13 -7 41 42 221 43 159 40 222 -11 278 -46 49 -160 12 -241 -77 -36 -39
-37 -40 -31 -14 4 15 11 39 16 51 12 34 3 42 -46 42 -68 0 -80 -17 -111 -155
-15 -66 -45 -189 -66 -274 -22 -85 -36 -158 -32 -162 13 -13 83 10 107 34 15
16 30 59 50 149 27 121 31 129 85 199 60 78 110 119 146 119 47 0 46 -47 -5
-245 -26 -100 -38 -166 -34 -183 15 -62 84 -101 149 -83 42 11 121 68 165 118
25 28 34 33 41 22 5 -8 9 -18 9 -23 0 -19 52 -77 82 -92 54 -28 88 -34 141
-24 70 13 159 59 232 118 l61 50 18 -44 c22 -55 84 -109 139 -122 81 -20 193
18 303 103 62 49 74 53 74 30 0 -35 40 -93 75 -110 31 -14 44 -15 82 -6 54 14
81 30 155 93 39 33 55 42 51 28 -7 -28 14 -85 44 -114 52 -53 132 -25 249 86
89 84 214 245 214 274 0 30 -39 11 -79 -38 -61 -76 -201 -216 -239 -240 -42
-26 -79 -18 -88 19 -12 48 15 184 46 233 50 77 147 291 174 382 30 98 49 234
39 290 -5 33 -34 70 -53 67 -3 0 -19 -5 -36 -10z m-1386 -531 c35 -35 -16
-122 -114 -196 -37 -28 -70 -50 -71 -48 -2 2 5 31 16 66 22 72 72 150 110 173
31 20 43 21 59 5z m541 -6 c16 -30 0 -71 -49 -125 -58 -64 -148 -131 -136
-101 5 10 12 35 16 54 16 81 97 190 140 190 11 0 24 -8 29 -18z m566 -12 c8
-16 18 -51 21 -77 4 -27 13 -53 21 -60 11 -8 13 -23 7 -58 -5 -37 -18 -61 -60
-110 -58 -68 -135 -125 -170 -125 -12 0 -32 8 -45 19 -19 15 -24 30 -26 82 -4
58 -1 68 26 108 22 33 27 49 21 62 -7 12 0 32 29 76 72 111 144 145 176 83z"/>
<path d="M1260 2329 c-226 -44 -439 -343 -521 -732 -29 -134 -31 -307 -5 -392
48 -159 140 -252 268 -270 100 -15 227 53 313 167 62 82 87 136 74 160 -14 25
-29 15 -82 -58 -106 -144 -260 -200 -348 -127 -71 60 -96 169 -79 349 29 314
152 622 304 762 81 75 152 91 203 48 26 -22 28 -30 27 -93 0 -97 -27 -178 -73
-225 l-38 -37 18 -30 c58 -96 174 -51 215 84 28 92 24 206 -8 276 -48 105
-136 144 -268 118z"/>
<path d="M2344 1910 c-24 -9 -62 -56 -88 -107 -20 -40 -21 -87 -1 -103 12 -10
3 -35 -64 -168 -66 -132 -88 -166 -135 -210 -61 -58 -82 -62 -105 -20 -14 25
-13 40 18 190 43 214 43 203 3 203 -25 0 -31 3 -25 15 3 8 7 30 7 49 1 43 -38
76 -92 75 -121 0 -299 -192 -347 -374 -30 -114 -13 -221 42 -257 54 -36 192
12 258 90 l33 38 12 -51 c19 -78 72 -108 146 -80 18 7 30 7 39 0 23 -19 44 1
106 103 34 56 81 129 104 162 23 33 54 86 69 118 l27 57 57 -6 c31 -3 63 -7
70 -10 24 -7 11 -48 -53 -169 -41 -78 -65 -134 -65 -155 0 -73 60 -140 125
-140 49 0 127 43 198 109 62 59 66 61 72 39 13 -40 55 -87 98 -110 112 -57
275 6 437 171 75 75 140 159 140 181 0 36 -38 11 -146 -97 -139 -138 -211
-183 -292 -183 -39 0 -57 6 -81 25 -16 14 -33 36 -36 48 -4 12 -9 29 -11 38
-3 12 23 35 88 80 159 108 227 193 228 282 0 83 -96 115 -199 65 -103 -50
-221 -213 -240 -335 -9 -56 -34 -92 -113 -158 -53 -45 -88 -60 -123 -51 -21 5
-25 13 -25 42 0 40 12 66 80 171 42 63 50 83 50 122 0 51 -26 103 -60 121 -12
7 -38 8 -65 5 -59 -9 -66 -3 -48 44 20 51 11 104 -24 131 -28 22 -37 23 -69
10z m714 -172 c41 -41 -23 -134 -157 -228 -31 -22 -34 -22 -27 -4 4 10 14 40
21 67 20 79 98 176 141 177 5 0 15 -5 22 -12z m-1215 -41 c-2 -36 -2 -36 28
-30 27 5 31 3 26 -13 -3 -10 -15 -65 -28 -122 -20 -90 -27 -109 -62 -148 -51
-59 -111 -90 -143 -75 -32 14 -39 51 -24 133 15 87 69 196 125 255 53 55 81
56 78 0z"/>
</g>
</svg>
